<?xml version="1.0" standalone="no"?>
<!DOCTYPE svg PUBLIC "-//W3C//DTD SVG 20010904//EN"
 "http://www.w3.org/TR/2001/REC-SVG-20010904/DTD/svg10.dtd">
<svg version="1.0" xmlns="http://www.w3.org/2000/svg"
 width="500.000000pt" height="500.000000pt" viewBox="0 0 500.000000 500.000000"
 preserveAspectRatio="xMidYMid meet">
<metadata>
Created by potrace 1.14, written by Peter Selinger 2001-2017
</metadata>
<g transform="translate(0.000000,500.000000) scale(0.100000,-0.100000)"
fill="#000000" stroke="none">
<path d="M2260 4988 c-489 -51 -940 -234 -1330 -542 -41 -33 -133 -118 -205
-190 -393 -396 -626 -875 -707 -1451 -16 -116 -16 -494 0 -610 68 -485 240
-890 540 -1270 73 -92 277 -296 372 -371 453 -358 1008 -554 1570 -554 562 0
1117 196 1570 554 95 75 299 279 372 371 300 380 472 785 540 1270 7 50 13
186 13 305 0 119 -6 255 -13 305 -70 503 -253 920 -570 1303 -311 376 -761
665 -1248 802 -274 77 -627 107 -904 78z m-637 -1253 c21 -10 58 -37 81 -61
47 -47 102 -149 552 -1041 142 -282 261 -513 264 -513 3 0 175 340 382 755
251 502 390 768 414 794 42 47 125 91 171 91 44 0 106 -32 130 -67 50 -74 48
-21 51 -1061 l2 -972 -177 2 -178 3 -3 865 c-1 530 -6 868 -12 874 -6 6 -15 4
-26 -5 -10 -8 -211 -402 -447 -877 l-430 -863 -36 3 -35 3 -421 852 c-231 469
-428 862 -439 874 -18 22 -19 22 -32 4 -12 -16 -14 -168 -14 -877 l0 -858 -40
0 -40 0 0 958 c0 610 4 970 10 993 35 125 156 180 273 124z"/>
</g>
</svg>
